<?xml version="1.0" encoding="utf-8"?>
<!-- Generator: Adobe Illustrator 19.0.0, SVG Export Plug-In . SVG Version: 6.00 Build 0)  -->
<svg version="1.1" id="Layer_1" xmlns="http://www.w3.org/2000/svg" xmlns:xlink="http://www.w3.org/1999/xlink" x="0px" y="0px"
	 viewBox="0 0 72 43.2" style="enable-background:new 0 0 72 43.2;" xml:space="preserve">
<g id="XMLID_95_">
	<path id="XMLID_9_" d="M9.7,11.6c0.8,0.1,1.5,0.1,1.6-0.1c0.5-0.6,0.7-5.1,3.4-7.7c3.4-2.6,11.8-3,11.8-3s3.7-0.4,6.5,0
		C35.7,1.1,43.1,2,45.9,2.7c2.8,0.7,7.4,1.4,10,2.2c2.6,0.8,8,4.9,8.6,5.4c0.5,0.5,0.8,0.9,1.4,3.5c0,8.8,4.3,15.7,4.3,15.7
		c-0.3,2.5,1.2,10.8,1.8,10.9c-0.4,0.6-1.2,1.5-1.5,2.3c-0.5,0.3-3.7,0.3-3.8,0.1c-0.1-0.2,1.2-1.5,1.2-1.5
		c3.4-6.3-9.5-17.5-10-17.2c-0.4,0.2-1.8,2.4-2.9,5.2c-1.1,2.7-0.2,3-0.2,3c-0.5,4.1-5.9,7.8-5.7,10.2c-4,0.4-5.4-0.1-5.4-0.1
		c2-1.3,6.4-7.9,5.8-8.6c-0.6-0.7-1.3-2-1.5-4c-3.1,0.6-8.4-0.2-8.4-0.2c-0.9-0.1-2.5,0.1-2.5,0.1c0,0-1.5,4.1-1.4,7.3
		c1.6,0.5,3.4,1.4,3.6,1.4c0.3,0,0.1,1.5,0.2,2.5c-1.7-0.3-5.8-1-6.6-1.4c-0.3,0.5,0.4,1.6,0.1,2.9c-0.5,0.2-4.9,0.4-5.4,0
		c0.6-0.8,2.1-1,1.8-3.5c-1.3-1.1-2.3-1.2-2.9-4.5c-1.9-1.3-10.7-4.5-12.4-3.9c-1.7,0.7-3.9,6.9-4.7,7.1c-0.8,0.1-0.8-1.5-1.3-1.7
		c-0.5-0.2-0.7,0.5-1.5,0c-0.7-0.5-1.3-2.9-1.3-2.9c-0.8-0.7-3.3,0-3.9-2.1c0.3-2.5-0.8-3.9-0.8-3.9s-0.2-2.8-0.3-4.9
		c-0.7-2.5-0.3-3.6,0-4.7c0.3-1.1,0.9-3.7,3.5-5.4c1-0.6,2.3-0.8,3.4-0.8L9.7,11.6z"/>
</g>
</svg>
