<?xml version="1.0" encoding="utf-8"?>
<!-- Generator: Adobe Illustrator 19.0.0, SVG Export Plug-In . SVG Version: 6.00 Build 0)  -->
<svg version="1.1" id="Layer_1" xmlns="http://www.w3.org/2000/svg" xmlns:xlink="http://www.w3.org/1999/xlink" x="0px" y="0px"
	 viewBox="0 0 216 216" style="enable-background:new 0 0 216 216;" xml:space="preserve">
<g id="XMLID_37_">
	<g id="XMLID_25_">
		<path id="XMLID_26_" d="M7.8,106.3V57.9h25.8v11.2H20.1v7.5h12.8v10.6H20.1v8.1h13.7v11H7.8z"/>
		<path id="XMLID_28_" d="M35.8,106.3V57.9h12.6v37.4h13.7v11.1H35.8z"/>
		<path id="XMLID_30_" d="M64,106.3V57.9h12.7v48.5H64z"/>
		<path id="XMLID_32_" d="M109.8,67.8c0.4,2.1,0.8,6.1,0.8,13.7c0,6.6-0.2,11.6-1.2,15.4c-1.9,7.3-6.3,10-14.7,10
			c-8.9,0-13.1-3.3-14.8-10.1C79,93,79,88,79,82c0-6.9,0.2-10.7,0.7-13.4c1.4-6.4,5-11.2,15-11.2C103.9,57.4,108.7,61.7,109.8,67.8z
			 M97.5,93.9c0.4-2.6,0.6-6,0.6-11.7c0-3.2-0.1-9.7-0.4-11.4c-0.4-1.8-1-2.7-2.9-2.7c-1.9,0-2.5,1-2.9,2.8
			c-0.3,1.6-0.5,8.1-0.5,11.4c0,5.9,0.2,9.5,0.6,11.8c0.2,1.4,1,2.6,2.7,2.6C96.5,96.5,97.3,95.2,97.5,93.9z"/>
		<path id="XMLID_35_" d="M131.7,69.1v37.2h-12.5V69.1h-7.8V57.9h28.1v11.2H131.7z"/>
	</g>
	<g id="XMLID_1_">
		<path id="XMLID_2_" d="M27,157.2H7.8v-48.5H27c4.9,0,7.9,1.4,9.5,3.6c1.4,1.6,2.1,4.5,2.1,7.9c0,3.5-0.4,6.9-1.8,8.9
			c-1,1.6-2.6,2.7-5,3c2.8,0.3,4.7,1.6,5.9,3.3c1.5,1.9,1.8,5.2,1.8,8.5c0,4.1-0.6,7.8-2.3,9.7C35.4,155.9,32.3,157.2,27,157.2z
			 M25.4,119.5c-0.2-0.8-1-1.2-1.9-1.2H20v10.2h3.8c0.6,0,1.5-0.3,1.7-1.4c0.2-0.7,0.3-1.9,0.3-3.9
			C25.8,121.7,25.6,120.3,25.4,119.5z M26.2,142.5c0-1.4-0.1-2.9-0.3-3.6c-0.2-1-1-1.3-1.8-1.3H20v10.1h4c1,0,1.6-0.4,1.9-1.5
			C26.1,145.4,26.2,143.7,26.2,142.5z"/>
		<path id="XMLID_6_" d="M70.8,131.7c-1,2.2-2.2,3.4-3.5,3.9l6.1,21.5H60.7l-4.5-18.5h-2.5v18.5h-12v-48.5h18.3c4.2,0,7.5,1.4,9.3,4
			c1.7,2.3,2.7,5.9,2.7,10.6C72.1,127.2,71.6,129.9,70.8,131.7z M59.4,121.4c-0.4-1-1.3-1.8-2.4-1.8h-3c0,0,0,8.6,0,9.3
			c0.1,0,3.2-0.1,3.2-0.1c0.8,0,1.9-0.4,2.1-1.2c0.2-0.6,0.5-2.1,0.5-3.1C59.8,123.4,59.5,121.8,59.4,121.4z"/>
		<path id="XMLID_9_" d="M75.2,157.2v-48.5h12.7v48.5H75.2z"/>
		<path id="XMLID_11_" d="M109.9,120v37.2H97.4V120h-7.8v-11.2h28.1V120H109.9z"/>
		<path id="XMLID_13_" d="M139.1,120v37.2h-12.5V120h-7.8v-11.2h28.1V120H139.1z"/>
		<path id="XMLID_17_" d="M178.7,118.7c0.4,2.1,0.8,6.1,0.8,13.7c0,6.6-0.2,11.6-1.2,15.4c-1.9,7.3-6.3,10-14.7,10
			c-8.9,0-13.1-3.3-14.8-10.1c-1-3.8-1-8.9-1-14.9c0-6.9,0.2-10.7,0.7-13.4c1.4-6.4,5-11.2,15-11.2
			C172.8,108.2,177.5,112.6,178.7,118.7z M166.4,144.7c0.4-2.6,0.6-6,0.6-11.7c0-3.2-0.1-9.7-0.4-11.4c-0.4-1.8-1-2.7-2.9-2.7
			c-1.9,0-2.5,1-2.9,2.8c-0.3,1.6-0.5,8.1-0.5,11.4c0,5.9,0.2,9.5,0.6,11.8c0.2,1.4,1,2.5,2.7,2.5
			C165.3,147.4,166.2,146.1,166.4,144.7z"/>
		<path id="XMLID_23_" d="M200,157.2l-6.9-18.8v18.8h-11.5v-48.5h10.4l6.9,19.2v-19.2h11.6v48.5H200z"/>
	</g>
	<g id="XMLID_15_">
		<path id="XMLID_68_" d="M209,91.9c0,0-4-7.6-4-17.3c-0.6-2.9-0.8-3.3-1.3-3.9c-0.5-0.5-5.6-5.1-8-6c-2.5-0.9-6.8-1.7-9.4-2.5
			c-2.6-0.8-9.5-1.7-12.1-2.1c-2.6-0.4-6,0-6,0s-7.9,0.5-11.1,3.3c-2.6,2.8-2.7,7.7-3.2,8.4c-0.2,0.2-0.7,0.2-1.5,0.1l-2.2-0.1
			c-1.1,0-2.3,0.2-3.2,0.9c-2.5,1.8-3,4.7-3.3,5.9c-0.3,1.2-0.6,2.5,0,5.2c0.2,2.3,0.3,5.4,0.3,5.4s1,1.6,0.7,4.3
			c0.6,2.3,2.9,1.5,3.7,2.3c0,0,0.5,2.7,1.2,3.2c0.7,0.5,0.9-0.2,1.4,0c0.4,0.2,0.4,2,1.2,1.8c0.7-0.1,2.7-7,4.4-7.7
			c1.6-0.7,9.9,2.9,11.7,4.2c0.5,3.6,1.5,3.7,2.7,5c0.2,2.7-1.2,2.9-1.7,3.8c0.4,0.5,4.5,0.2,5,0c0.2-1.5-0.4-2.6-0.1-3.2
			c0.8,0.4,4.7,1.1,6.2,1.5c-0.1-1.1,0-2.8-0.2-2.8c-0.3,0-2-0.9-3.4-1.5c-0.1-3.5,1.3-8,1.3-8c0,0,1.4-0.2,2.3-0.1
			c0,0,5,0.8,7.9,0.2c0.2,2.1,0.9,3.6,1.4,4.4c0.6,0.8-3.5,7.9-5.4,9.4c0,0,1.4,0.6,5.1,0.2c-0.2-2.6,4.8-6.7,5.3-11.2
			c0,0-0.8-0.3,0.2-3.3c1-3,2.3-5.4,2.7-5.7c0.4-0.3,12.5,12,9.3,18.9c0,0-1.3,1.4-1.1,1.6c0.1,0.2,3.1,0.3,3.6-0.1
			c0.3-0.9,1.1-1.9,1.4-2.6C210.1,103.8,208.6,94.7,209,91.9z M150.6,80.8c0,0-0.9,0.1-1.1-0.9c3-3.9-0.9-5.3-0.7-6.4
			c0.2-0.2,0.4-0.1,0.5-0.1C155.2,76.4,150.6,80.8,150.6,80.8z"/>
	</g>
</g>
<g id="XMLID_50_">
	<g id="XMLID_55_">
		<path id="XMLID_56_" d="M56.9,166.9c19.4-3.7,42.6,6,48.6,19.1c3.4,7.6-0.7,14.4-10.1,18.3c-6.7,2.8-14.3,4.3-22,5.1
			c-11.2,1.2-23.1,0.4-32.8-3.8c-4.5-2-8.1-4.8-10.8-8c-1.5-1.8-2.6-3.8-3.5-5.8c-1.7-3.8,1.3-5.6,6-6.8c7.6-2,16.5-1.5,24.3-0.9
			c11.1,0.8,22.2,2.4,33.1,4.1c27.7,4.2,56.6,10.5,85.3,9.3c11.2-0.5,24.2-3.3,29.4-11.1c5.1-7.9-2.8-16-13.8-18.1
			c-1.9-0.4-5.3,4-5.3,4c8.9,1.8,15.7,7,15.3,13.7c-0.4,7.7-18.4,7.6-26.5,7.7c-23.3,0.1-46.6-4.3-69.2-7.9c-19.2-3-40-7.2-59.8-5.9
			c-8.9,0.6-16.4,3.5-21.9,8.4c-6.8,6.1,1.4,14.9,8.1,19.2c12.3,8,31.7,7.5,46.7,4.7c10.6-2,20.3-6.2,27.3-12.2
			c22.5-18.9-15.7-42.4-43.5-37c-1.4,0.3-2.7,1.4-3.6,2.2C58,165.1,56,167,56.9,166.9L56.9,166.9z"/>
	</g>
	<g id="XMLID_53_">
		<path id="XMLID_54_" d="M107.5,180.7c21,4.2,44.4,6.9,66.3,5.1c13.8-1.1,34.1-6,41.2-15.5c0.8-1-1.5,0-1.7,0.2
			c-1.3,0.8-2.6,1.7-3.4,2.8c0.3-0.4,0.6-0.5-0.3,0c-3,1.8-6.7,3.1-10.3,4.2c-9.9,3.2-20.3,4.6-31.1,4.7c-18.5,0.3-37.6-2-55.4-5.6
			C110.9,176.3,107.5,180.7,107.5,180.7L107.5,180.7z"/>
	</g>
	<g id="XMLID_51_">
		<path id="XMLID_52_" d="M186.5,204.5c-12.9,2.6-28,0.3-40.9-1.4c-19-2.4-37.7-5.6-56.6-8.5c-16.7-2.5-33.7-5-50.8-5.3
			c-13-0.2-27.4,2.2-36.1,9.5c-3.5,2.9,0.7,1.1,2.5-0.3c-0.8,0.7-1,0.7,0.1,0.1c1.8-1,3.9-1.7,6-2.4c3.7-1.2,7.7-2,11.8-2.5
			c6.3-0.7,12.9-0.4,19.3-0.1c17.3,1,34.4,3.7,51.4,6.4c17,2.6,33.9,5.5,51.1,7.5c11.9,1.4,25.6,3.3,37.5,0.9
			c1.4-0.3,2.7-1.4,3.7-2.2C185.5,206.3,187.4,204.3,186.5,204.5L186.5,204.5z"/>
	</g>
</g>
<g id="XMLID_57_">
	<g id="XMLID_62_">
		<path id="XMLID_63_" d="M159.1,6.5c-19.4-3.7-42.6,6-48.6,19.1c-3.4,7.6,0.7,14.4,10.2,18.3c6.7,2.8,14.3,4.3,22,5.1
			c11.2,1.2,23.1,0.4,32.8-3.8c4.5-2,8.1-4.8,10.8-8c1.5-1.8,2.6-3.8,3.5-5.8c1.7-3.8-1.3-5.6-6-6.8c-7.6-2-16.5-1.5-24.3-0.9
			c-11.1,0.8-22.2,2.4-33.1,4.1C98.6,31.9,69.7,38.2,41.1,37c-11.2-0.5-24.2-3.3-29.4-11.1C6.6,18,14.5,9.9,25.5,7.8
			c1.9-0.4,5.3,4,5.3,4c-8.9,1.8-15.7,7-15.3,13.7c0.4,7.7,18.4,7.6,26.5,7.7c23.3,0.1,46.6-4.3,69.2-7.9c19.2-3,40-7.2,59.8-5.9
			c8.9,0.6,16.4,3.5,21.9,8.4c6.8,6.1-1.4,14.9-8.1,19.2c-12.3,8-31.7,7.5-46.7,4.7c-10.6-2-20.3-6.2-27.3-12.2
			c-22.5-18.9,15.7-42.4,43.5-37c1.4,0.3,2.7,1.4,3.6,2.2C158,4.8,160,6.7,159.1,6.5L159.1,6.5z"/>
	</g>
	<g id="XMLID_60_">
		<path id="XMLID_61_" d="M108.5,20.4c-21,4.2-44.4,6.9-66.3,5.1C28.4,24.4,8.1,19.5,1,10c-0.8-1,1.5,0.1,1.7,0.2
			C4,11,5.3,11.9,6.1,13c-0.3-0.4-0.6-0.5,0.3,0c3,1.8,6.7,3.1,10.3,4.2c9.9,3.2,20.3,4.6,31.1,4.7c18.5,0.3,37.6-2,55.4-5.6
			C105.1,16,108.5,20.4,108.5,20.4L108.5,20.4z"/>
	</g>
	<g id="XMLID_58_">
		<path id="XMLID_59_" d="M29.5,44.2c12.9,2.6,28,0.3,40.9-1.4c19-2.4,37.8-5.6,56.6-8.5c16.7-2.5,33.7-5,50.8-5.3
			c13-0.2,27.4,2.2,36.1,9.5c3.5,2.9-0.7,1.1-2.5-0.3c0.8,0.7,1,0.7-0.1,0.1c-1.8-1-3.9-1.7-6-2.4c-3.7-1.2-7.7-2-11.8-2.5
			c-6.3-0.7-12.9-0.4-19.3-0.1c-17.3,1-34.4,3.7-51.4,6.4c-17,2.6-33.9,5.5-51.1,7.5c-11.9,1.4-25.6,3.3-37.5,0.9
			c-1.4-0.3-2.7-1.4-3.7-2.2C30.5,45.9,28.6,44,29.5,44.2L29.5,44.2z"/>
	</g>
</g>
</svg>
