<?xml version="1.0" encoding="utf-8"?>
<!-- Generator: Adobe Illustrator 19.0.0, SVG Export Plug-In . SVG Version: 6.00 Build 0)  -->
<svg version="1.1" id="Layer_1" xmlns="http://www.w3.org/2000/svg" xmlns:xlink="http://www.w3.org/1999/xlink" x="0px" y="0px"
	 viewBox="0 0 187 216" style="enable-background:new 0 0 187 216;" xml:space="preserve">
<style type="text/css">
	.st0{fill:#52BFA2;}
</style>
<g id="XMLID_37_">
	<g id="XMLID_575_">
		<path id="XMLID_576_" class="st0" d="M5,63.9c0,0.3-0.4,0.9,0.1,1.2C5,64.6,5.6,64.3,5,63.9z M5.3,129.1c0.7-2,0-4.3,0.2-6.6
			c-0.2-0.4-0.6-0.4-1-0.5c-1.2,1.9,0,4-0.2,6C4.4,128.5,4.6,129.2,5.3,129.1z M4.2,100c-0.6,0.9,0.3,1.9,0,2.8
			c-0.4,2.3,0.4,4.2,0.1,6.4c-0.2,4-0.4,7.4-0.2,11.5c0.2,0.2,0,0.5,0.4,0.6c0.5,0,0.8-0.4,0.9-0.6c0-3.1-0.4-6.2-0.4-9.3
			c-0.3-1.5,0.2-2.8-0.4-4.1c0.3-0.8,0.3-1.8,0.3-2.7c0.2-0.4-0.9-0.6-0.2-0.9c0.5-8.1-0.2-16.1,0.2-24c-0.4-4.4,0.6-8.9,0.3-13.3
			L5,65.9l-0.7,1.9C4,69.7,4.6,71.2,4.1,73c-0.6,1.2-0.5,2.8-0.5,4.1c0.8,1.4-0.3,2.7,0.5,4.1c-0.8,3.3-0.2,6.6-0.5,9.8
			C3.7,94.1,3.4,97.1,4.2,100z M4.7,61.5c-0.2,0.7-0.1,1.3,0.3,2l0.3-0.2c0.9-9.8,0-20.2,0.4-29.7c0.6-2.2-0.5-4.7,0.2-6.9
			c-0.2-2.4,0-4.7-0.1-7.1l-0.3-0.3l-0.3,0.4c0.3,1.1-0.1,1.9-0.1,3l0.2,0.2l-0.1,5.6c-0.3,1.5-0.2,3.2-0.5,4.7l0.1,7
			c-0.5,1.1,0.5,2.3,0,3.4c-0.2,2.8-0.5,6.2-0.1,9.1C4.2,55.8,4.7,58.7,4.7,61.5z M6,202.4c0.1-0.2,0.5-0.1,0.6-0.2
			c0.2-1.4,0.1-2.7-0.1-4c-0.5,0.2-0.3,0.6-0.5,0.9C6.1,200.2,5.2,201.5,6,202.4z M6.6,203.6c-0.3-0.2-0.4-0.5-0.3-0.8
			c-0.2-0.5-0.5,0-0.6,0.2c-0.1,0.9-0.3,1.9,0.3,2.7C6.8,205.3,6.1,204.2,6.6,203.6z M5.6,167.5c-0.3,4.7,0.7,9.7,0.3,14.4l0.6,0.5
			c0.6-0.4,0-1,0.1-1.5c1.1-1.8-0.3-3.7,0.4-5.6l-0.7-20.4c-0.5-3.8,0.2-6.6-0.4-10.3l-0.3-0.2c-0.9,1.1-0.8,2.5-0.6,3.8
			c0.1,1.6,0.3,3.3,0.1,4.7c0.3,4.6,0,8.9-0.2,13.4L5.6,167.5z M6.6,197.9l0.2-2c-0.1-0.5-0.2-1.2-0.7-1.2c0.7-1.1,0.4-2.5,0.6-3.7
			c-1.6-0.8,0.3-1.6-0.1-2.6l-0.2-0.2c-1.1,0.3,0.6,1.3-0.8,1.6c-0.4,1,0,2.3-0.1,3.4c-1.1,0.6,0,1.6-0.6,2.3
			c1.1,0.6,0.9,1.7,1.2,2.6H6.6z M35,210.5c-1.8-0.2-3.5-0.1-5.2-0.1c-2.8-0.3-6.3-0.3-9.5-0.3c-2.1-0.1-3.8-0.2-6-0.3
			c-0.6,0.2-1.5-0.3-2.1,0.1c-2,0-3.8-0.4-5.4-1.2c-0.5-0.1-0.3-0.7-0.8-0.6c-0.9,0.4-0.5,1.1-0.3,1.7c0.7,0.5,0.7,1.6,2,1.4
			c1.2-0.3,2.5-0.4,3.6-0.6c1.7,0.5,3.8-0.3,5.4,0.4c3.6-0.1,7.6,0.6,11.1,0c2.4,0.2,4.8,0.9,7.1,0C35.2,210.9,35.5,210.6,35,210.5z
			 M6.1,186c-0.1,0.3-0.3,0.7,0.1,0.9c0.2,0,0.4,0,0.5-0.2C6.6,186.4,6.5,186.1,6.1,186z M5.5,18.6c0.2-0.3,0.2-0.6-0.1-0.9
			C4.9,18,5.3,18.4,5.5,18.6z M182.5,141.5c0-0.1-0.2-0.1-0.3-0.1l0.2,0.3C182.6,141.6,182.5,141.6,182.5,141.5z M182.7,133.4
			c-0.3,0-0.4,0.3-0.2,0.5C182.6,133.8,182.9,133.6,182.7,133.4z M183.2,149.6c-0.2-2.3-0.9-4.4-0.6-6.7c0-0.4-0.8-0.2-0.8,0.1
			l-0.1,6.2c0.6,10.4-0.3,20.9,0.3,31.5c-0.5,1.5-0.3,3.2-0.2,4.8c0,0.4,0.2,0.9,0.4,1.2c0.9-1.4-0.1-3.1,0.5-4.6
			c-0.8-0.9,0.6-1.8,0-2.7c0.7-5.5,0.7-11.4,0.4-16.9c0-1.8,0.4-3.7,0.1-5.5C183.6,154.6,182.2,152.1,183.2,149.6z M182,138.2
			c-0.6,0.7,0.2,1.5,0.1,2.2c0.2-0.6,0.5-1.2,0.5-2c1.1-1-0.9-2,0.2-3c-0.1-0.1,0-0.6-0.5-0.4C181.5,135.9,181.8,137.1,182,138.2z
			 M182.7,142.2c0.1-0.1,0.1-0.3-0.1-0.4c-0.3,0.1-0.3,0.4-0.1,0.5C182.5,142.3,182.6,142.3,182.7,142.2z M5.3,8.7l0.2-0.2
			c0.2-0.6,0.1-1.3-0.3-1.6L4.4,7.5C4.7,7.9,4.7,8.4,5.3,8.7z M5.3,6.5C5,5.8,6.3,5.6,6.1,4.9C5.5,4.7,5.8,4.3,5.5,4.1
			C5.3,4.9,4.1,5.9,5.3,6.5z M8.9,5.2C8.7,4.9,8.3,5.1,8.3,5.3C8.4,5.4,8.7,5.4,8.9,5.2z M168.9,3.6c2-0.1,3.8,0.8,5.9,0.5
			c0.6-0.1,1.7,0,1.5-0.7c0.2,0.5,0.8,0.9,1.5,0.9c0.8,0.2,1.2,1.2,1.9,0.7c-0.2-0.1,0-0.3-0.1-0.4c-0.1-1.1-1.6-1.1-2.6-1.4
			c-0.5,0-1,0.4-1.5,0c-2.2-0.3-4.6-0.2-6.9,0.3C168.7,3.4,168.9,3.5,168.9,3.6z M166.3,3c-0.1-0.3-0.9-0.5-0.8,0
			c0.2,0.1,0.3,0.3,0.5,0.3C166.1,3.3,166.4,3.2,166.3,3z M135.2,81.1c-2,0-3.3,1.7-3.3,4.3c0,2.6,1.3,4.3,3.3,4.3
			c2,0,3.4-1.7,3.4-4.3C138.6,82.7,137.2,81.1,135.2,81.1z M135.4,54.2c0,0-0.1-0.1-0.2,0c-0.1,0.5,1.8,1.1,0.4,2.7
			c0.1,0.4,0.5,0.4,0.5,0.4S138.4,55.4,135.4,54.2z M48.8,81.1h-2.4v3.6h2.4c1.4,0,2-0.7,2-1.8C50.8,81.9,50.1,81.1,48.8,81.1z
			 M88.1,55.3c-2,0-3.3,1.7-3.3,4.3s1.3,4.3,3.3,4.3c2,0,3.4-1.7,3.4-4.3S90.1,55.3,88.1,55.3z M183.3,194.7
			c0.2-2.1,0.1-4.4,0.1-6.4c-0.3-0.5-1.3-0.6-1.4-1.2c-0.8,0.9,0.6,1.9-0.3,2.8c-1.5-3.7-2-8.2-1.2-12.2c-0.5-2.9,0.1-6-0.1-9
			l0.3-0.3l-0.3-0.2c0-5.4,0-10.8,0.3-16.2l-0.2-0.3c0-6.4,0.1-12.2-0.1-18.5c0.6-8.7,0-17.2,0.1-26.1c0.9-0.7-0.1,0.5,0.6,0.6
			c0.4,3.9,0.4,7.9,0.4,11.8c-0.4,4.4,0.3,8.7,0.2,13c0.1,0.2,0.5,0.7,0.8,0.6l0.3-0.4c0.6-2.4,0.1-4.8-0.2-7.3
			c-0.8-1.8,1.1-3.7-0.6-5.3c0.9-0.3,0.4-1,0.4-1.6c0.3-1.8,0.6-3.6,0.5-5.5l-0.3-0.7c0.6-1.4,0.2-2.9,0.4-4.4
			c0-2.7,0.6-5.7-0.5-8.2l0.1-2.9c-0.5-1.5-0.2-3.4-0.1-5c-0.9-0.8,0-1.8-0.3-2.8c-1.1-0.9,0.3-1.8,0-2.8c-0.9-4.3,0.1-8.2-0.5-12.6
			c-0.6-1.7,0.4-3.3-0.1-5c0.2-0.6,0.5-1.3-0.2-1.8c0.2-1.8,0.5-3.6,0.1-5.3c-0.2-1.5,1.3-3.2-0.1-4.5c-0.2-1.8-0.2-3.3,0-5.2
			c-0.5-1-0.8-2.2-0.4-3.2c0.7-1.6-0.1-3.4,0.7-4.9c-0.9-0.8-1.3-2-0.9-3.1c0.1-0.3-0.6-0.5-0.1-0.8c-0.2-0.8,0-1.7-0.5-2.4
			c0.9-1.2-0.3-2.1,0.2-3.4c-0.9-1.1,0.4-2.1,0.1-3.4c0.4-0.6,0.9-1.1,0.9-1.9c-0.3-0.9-0.4-2-1.8-2.3c0.1-1,0.6-2.1,1-3.1
			c0.2-0.4,0.5-1.1-0.2-1.3c-0.1-3-0.8-6-0.4-9c-0.3-1.9,1-4.1-0.3-5.8l-0.1,0.1c-0.3,1.8-0.7,3.7-0.9,5.6l-0.6,0.5
			c-0.6-1.2-0.2-2.8-0.3-4.2c-0.9-0.6-0.2-1.6-0.8-2.2c-0.9-1.4-2.9-1.4-4.5-1.7C162.7,5.2,152.8,4.8,143,5l-31.9-0.1
			c-1.6,0.3-2.8-0.7-4.1-0.1c-2.6-0.1-5.5,0.3-8-0.1V4.7c0.3-0.2,0.6,0,1,0c1.1-0.3,2.7-0.5,3.8-0.1c12.1-0.4,24.6-0.3,37.1-0.7
			c7.3,0,15.1-0.2,22.5-0.2l0.3-0.2c0.3-0.1-0.1-0.3-0.2-0.4c-0.2-0.2-0.5,0-0.7,0c-1.3-1.5-3.7-0.4-5.6-0.4
			c-1.2-0.6-2.4-0.3-3.7-0.1c-0.9-0.7-2.4-0.3-3.6-0.6c-0.9,0.6-1.6-0.4-2.6-0.1c-1.8-0.6-4.2-0.2-6.2-0.1c-2.5-0.3-5.2,0.2-7.7,0.2
			c-1.6-0.6-2.8,0.5-4.4,0.4c-3.7-0.7-7.6-0.1-11.5-0.4c-0.8,1.1-2.2-0.1-3.2,0.4c-1.2-0.2-2.6,0.7-3.7-0.1c-3,0.1-6.2-0.1-9.1,0.2
			c-1.1-0.7-2.7,0.1-3.7-0.4c-1.5,0.6-2.8-0.5-4.3,0C86.4,2,78.7,2,71.9,1.8c-1.8,0.3-4.1-0.3-5.3,0.9c-0.7,0.2-1-0.6-1.7-0.8
			l-6.5-0.1c-2.6,0-5.6-0.2-8,0.5c-1.1-0.4-1.9-0.2-3.2-0.2c-0.8,0.7-2.3,0.2-3.1,0.9c-0.5-0.1-1.3,0.2-1.5-0.3
			c-0.3-0.3,0.2-0.6,0.5-0.8l-0.8-0.2c-1.8,0.6-3-0.5-5-0.2c-0.5,0-0.9,0.4-1,0.7c-0.9-0.2-2.1-0.4-3-0.1c-0.6,0.1-1.2,0.1-1.8-0.1
			c-0.8-0.2-1.6,0-2.1,0.4c-0.9,0.2-2,0.4-2.5-0.4c-0.2,0.1-0.1,0.5-0.5,0.4c0-0.9-1.2-0.2-1.8-0.4c-0.4,0.2-1.8-0.4-1.6,0.5
			c-0.3,0.3-1,0-1.5,0.2c-1,1.1-2.7,0.7-4.1,0.5c-1.9,0.1-3.8-0.5-5.5,0c-0.7,0.2-1.8,0-2.2,0.5c1.2,0.3,2.4-0.2,3.6,0.1
			c1,0.6,1.7-0.3,2.9,0.1c1.5-0.8,2.7,0.6,4.2,0.3c0.5,0.1,1-0.5,1.3,0.1h5.4C28.9,4,31,4.1,32.6,4.2c1,0.5,2.1-0.5,3.1-0.1
			c0.7,0.2,1.5-0.2,2.1,0.1c1.5-0.1,3.7-0.1,5.5,0c0.8-0.6,1.6,0.2,2.6-0.3c0.9,0.4,1.9,0.4,2.7,0c1.8,0.7,3.7-0.2,5.5,0.4
			C39.3,4.8,24.4,4.5,9.5,5L9.1,5.2c0.2,0.1,0,0.2,0.1,0.3C7.8,6,6.6,6.7,6.4,7.9c-0.1,3.5,0.2,7.2,0.1,10.9
			c0.4,2.3-0.4,4.8,0.3,7.1L6.9,46l-0.2,5.6l-0.3,20l-0.3,5.2L6,94.2l0.4,32.3c-0.2,4.4,0.6,7.6-0.3,11.8c-0.6-2.6-0.5-5.5-0.5-8.1
			l-0.8-0.9c-0.3,0.6-0.6,1.3-0.3,2c0.4,2.9,0,5.8,0.4,8.5c1.1,1.3-1.5,1.7-0.9,2.8c1.3,0.1,0.6-1.2,1.5-1.4c1.9,1.4,0.7,3.5,1,5.4
			l0.4,0.4c0,0.2,0.1,0.4-0.2,0.5c0,8.4,0.8,16.8,0.5,25l0.2,0.3L7.3,177c0.8,5.7-0.3,12.1,0.2,18c0.9,3.3-0.4,6.5-0.1,9.7
			c-0.2,1.1-0.6,2.3,0.7,3.1c1.7,0.4,3.5,0.7,5.4,0.8c17.4,0.3,36.2,0.9,53.8,1l20.7,0.2c21.1,0.2,42.4,0.8,63.1,1
			c9.1,0,18,0.4,27.4-0.1c3.7-0.8,0.9-3.7,2.4-5.4c0.5,1,0,2.2,0,3.3c0.8,0.7-0.7,1.7,0.5,2.3l0.4-0.3c1.2-2.2,1-4.7,0.7-7.2
			C183.4,200.6,183.5,197.6,183.3,194.7z M37,2.4c-0.2,0.1-0.5-0.2-0.3-0.2c0.1,0,0.3-0.1,0.4,0.1C37.1,2.3,37,2.3,37,2.4z
			 M42.8,52.1h3.9v11.5h6.6v3.4H42.8V52.1z M19.4,52.1H30v3.3h-6.8v2.3h6.2V61h-6.2v2.6H30v3.4H19.4V52.1z M26.2,92.7h-6.8V77.9h6.4
			c3.1,0,5,1.4,5,4c0,1.6-0.9,2.8-2,3.1c1.4,0.5,2.4,1.8,2.4,3.5C31.1,91.3,29.3,92.7,26.2,92.7z M50.8,92.7l-3.1-4.9h-1.4v4.9h-3.8
			V77.9h6.7c3.2,0,5.4,1.8,5.4,5.1c0,2.2-1.1,3.8-2.9,4.5l3.5,5.3H50.8z M59.8,4.4c0.5-0.1,1,0,1.5,0C60.8,4.4,60.3,4.5,59.8,4.4z
			 M63,4.4c0.2,0,0.3-0.2,0.5,0H63z M65.9,52.1h3.9v14.8h-3.9V52.1z M69.9,92.7h-3.9V77.9h3.9V92.7z M94.3,81.2h-4.6v11.5h-3.9V81.2
			h-4.6v-3.3h13V81.2z M88.1,67.2c-4.3,0-7.2-3.2-7.2-7.7c0-4.4,2.9-7.7,7.2-7.7c4.3,0,7.3,3.2,7.3,7.7
			C95.3,63.9,92.4,67.2,88.1,67.2z M91.5,4.8L91.5,4.8c2-0.3,4.4-0.2,6.4-0.2c0,0.1,0.2,0.1,0.3,0.1C96.1,5.1,93.6,4.6,91.5,4.8z
			 M117.9,81.2h-4.6v11.5h-3.9V81.2h-4.6v-3.3h13V81.2z M118.2,55.4h-4.6v11.5h-3.9V55.4h-4.6v-3.3h13V55.4z M135.2,93
			c-4.3,0-7.2-3.2-7.2-7.7c0-4.4,2.9-7.7,7.2-7.7c4.3,0,7.3,3.2,7.3,7.7C142.5,89.7,139.5,93,135.2,93z M155.4,64
			c-0.3-0.3-0.6-1-0.7-1.9c-1.5,0.3-3.9-0.1-3.9-0.1c-0.4,0-1.2,0-1.2,0c0,0-0.7,1.9-0.6,3.4c0.7,0.2,1.6,0.7,1.7,0.6
			s0.1,0.7,0.1,1.2c-0.8-0.2-2.7-0.4-3.1-0.6c-0.1,0.3,0.2,0.7,0.1,1.3c-0.2,0.1-2.3,0.2-2.5,0c0.3-0.4,1-0.5,0.9-1.6
			c-0.6-0.5-1.1-0.6-1.3-2.1c-0.9-0.6-5-2.1-5.8-1.8c-0.8,0.3-1.8,3.2-2.2,3.3c-0.4,0.1-0.4-0.7-0.6-0.8c-0.2-0.1-0.3,0.2-0.7,0
			c-0.3-0.2-0.6-1.4-0.6-1.4c-0.4-0.3-1.6,0-1.8-1c0.1-1.1-0.4-1.8-0.4-1.8s-0.1-1.3-0.2-2.3c-0.3-1.1-0.2-1.7,0-2.2
			c0.2-0.5,0.4-1.7,1.6-2.5c0.5-0.3,1.1-0.4,1.6-0.4l1.1,0.1c0.4,0,0.7,0.1,0.8,0c0.2-0.3,0.3-2.4,1.6-3.6c1.6-1.2,5.5-1.4,5.5-1.4
			s1.7-0.2,3,0c1.3,0.2,4.7,0.6,6,0.9c1.3,0.3,3.4,0.7,4.7,1c1.2,0.4,3.7,2.3,4,2.5c0.3,0.2,0.4,0.4,0.7,1.7c0,4.1,2,7.3,2,7.3
			c-0.2,1.2,0.6,5,0.8,5.1c-0.2,0.3-0.6,0.7-0.7,1.1c-0.2,0.2-1.7,0.1-1.8,0c-0.1-0.1,0.6-0.7,0.6-0.7c1.6-2.9-4.4-8.1-4.7-8
			c-0.2,0.1-0.8,1.1-1.3,2.4c-0.5,1.3-0.1,1.4-0.1,1.4c-0.3,1.9-2.7,3.6-2.7,4.7c-1.9,0.2-2.5-0.1-2.5-0.1
			C153.7,67.4,155.7,64.3,155.4,64z M166.9,92.7h-3.1l-6.2-8.7v8.7h-3.7V77.9h3.6l5.7,8.2v-8.2h3.7V92.7z M178.3,17.3
			c0.2-1.3-0.4-2.6,0.3-3.8c0.3,2,0.3,4.4,0,6.4l0.2,1.8C178.1,20.5,178.2,18.7,178.3,17.3z M178.7,22.3c0.4,1.9,0.1,4.2,0.3,6
			c0.2,0.6,0,1.2-0.2,1.8c0,0.4,0,0.7,0,1.1c-0.1-0.4-0.1-0.7,0-1.1c0-2.6-0.5-5.2-0.3-7.8H178.7z M178.8,31.7
			c-0.1,0.7,0.2,1.4,0.1,2.2C178.6,33.2,178.7,32.4,178.8,31.7z M179.1,34.8v1.6h-0.1v-1.6H179.1z M179.1,37.7
			c0.2,0.2,0,0.5,0.1,0.7h-0.2L179.1,37.7z M179.2,41L179.2,41l-0.1-0.3h0.1V41z M179.7,55.3L179.7,55.3l-0.1-0.2L179.7,55.3z
			 M180.1,60.5c-0.2-1.2-0.1-2.2-0.4-3.4C180,58.1,180.4,59.3,180.1,60.5z M180.1,63.2v0.3H180v-0.3H180.1z M179.9,64.7L179.9,64.7
			l0.1,1.4h-0.1V64.7z M180,67.3v-0.6h0.1v0.6H180z M180.1,70.3c0-0.4-0.1-0.9,0-1.3C180.1,69.4,180.1,69.8,180.1,70.3
			c0.2,1.5,0.7,3,0.2,4.4c0.3,5.6,0.3,11.1,0.7,16.7c-0.3,3.9-0.2,7.4-0.1,11.3c-0.5-0.7-0.4-1.8-0.4-2.6c0-2.7-0.4-5.3-0.1-8.1
			C179.9,84.6,180.1,77.6,180.1,70.3z M181.3,203.7L181.3,203.7l-0.1-1h0.1V203.7z M27,82.4c0-0.9-0.6-1.3-1.7-1.3h-2.2v2.7h2.2
			C26.4,83.8,27,83.3,27,82.4z M180.8,211.2c-1.7,0.9-4.4,0.6-6.4,0.6c-7.7,0.2-15,0.3-22.6-0.1c-0.9,0-2.1,0.6-2.9,0.1
			c-3.4-0.1-7-0.2-10.1,0.2c-2.3-0.3-5-0.3-7.3-0.3c-0.5,0-1.4-0.1-1.9,0.1c-3.1-0.3-6.4-0.4-9.4-0.2l-29.4-0.4l-1.6,0.2
			c-1.2-0.3-2.6,0.4-3.8-0.3c-16.1-0.3-32.5-0.3-48.6-0.6l-0.8,0.2c0,0.2,0.2,0.4,0.4,0.6c2.1,0.6,4.5,0.3,6.7,0.5
			c7.7-0.1,14.9,0.2,22.4,0.3c4.8,0.1,9.6,0.1,14.4,0.2c3.2,0.3,7.1-0.2,10.3,0.1c7,0.2,13.6,0.3,20.6,0.5c2.5-0.2,4.7,0.5,6.8-0.3
			c2.7,0.8,6.2,0.4,9.1,0.6c1.9-0.5,3.9,0.2,5.7,0c0.5,0,0.7-0.8,1.2-0.2c0.9-0.3,3,0.8,2.8-0.7c0.6,0.2,2.1-0.2,1.8,0.8
			c0.6,0.4,1.3-0.1,1.9-0.1c6.9,0.7,13.8,0.9,20.7,0.8l0.5-0.2c0.9,0.3,2.3,0.2,3.2,0c0.7,0.3,1.6,0.3,2.1-0.4
			c0.4-0.1,0.6,0.3,0.8,0.5c0.4,0.1,1-0.2,1.2-0.4c1-0.4,1.3,0.4,1.8,0.8c3-0.1,6-0.2,8.9-0.2l1.4-0.3c0.6-0.4,1.2-0.9,0.9-1.6
			C181.5,211.6,181.3,211.2,180.8,211.2z M25.7,86.7h-2.6v2.9h2.6c1.1,0,1.7-0.6,1.7-1.4C27.4,87.2,26.8,86.7,25.7,86.7z"/>
	</g>
</g>
</svg>
