<?xml version="1.0" encoding="utf-8"?>
<!-- Generator: Adobe Illustrator 21.1.0, SVG Export Plug-In . SVG Version: 6.00 Build 0)  -->
<svg version="1.1" id="Layer_1" xmlns="http://www.w3.org/2000/svg" xmlns:xlink="http://www.w3.org/1999/xlink" x="0px" y="0px"
	 viewBox="0 0 187 216" style="enable-background:new 0 0 187 216;" xml:space="preserve">
<style type="text/css">
	.st0{fill:#52BFA2;}
</style>
<g>
	<g>
		<path class="st0" d="M49.3,81.3h-2.4v3.5h2.4c1.4,0,2-0.7,2-1.8C51.3,82,50.7,81.3,49.3,81.3z M88.1,55.7c-2,0-3.3,1.7-3.3,4.2
			c0,2.5,1.3,4.2,3.3,4.2c2,0,3.3-1.7,3.3-4.2C91.4,57.4,90.1,55.7,88.1,55.7z M27.8,82.5c0-0.9-0.6-1.3-1.7-1.3h-2.2v2.6h2.2
			C27.2,83.9,27.8,83.4,27.8,82.5z M134.7,81.2c-2,0-3.3,1.7-3.3,4.2c0,2.5,1.3,4.2,3.3,4.2c2,0,3.3-1.7,3.3-4.2
			C138,82.9,136.7,81.2,134.7,81.2z M26.5,86.7h-2.6v2.8h2.6c1.1,0,1.7-0.6,1.7-1.4C28.2,87.3,27.6,86.7,26.5,86.7z M4.7,3.5v208.8
			h177.6V3.5H4.7z M43.4,52.6h3.8v11.3h6.6v3.3H43.4V52.6z M20.3,52.6h10.5v3.3H24v2.3h6.1v3.2H24v2.5h6.7v3.3H20.3V52.6z M27,92.7
			h-6.7V78.1h6.3c3.1,0,4.9,1.4,4.9,4c0,1.6-0.9,2.7-2,3.1c1.4,0.5,2.4,1.8,2.4,3.5C31.9,91.3,30.1,92.7,27,92.7z M51.3,92.7
			l-3.1-4.8h-1.3v4.8h-3.8V78.1h6.6c3.2,0,5.3,1.8,5.3,5c0,2.2-1.1,3.7-2.9,4.4l3.4,5.3H51.3z M66.2,52.6h3.8v14.7h-3.8V52.6z
			 M70.2,92.7h-3.8V78.1h3.8V92.7z M94.2,81.4h-4.5v11.4h-3.8V81.4h-4.5v-3.3h12.9V81.4z M88.1,67.5c-4.2,0-7.1-3.2-7.1-7.6
			c0-4.4,2.9-7.6,7.1-7.6c4.2,0,7.2,3.2,7.2,7.6C95.3,64.3,92.4,67.5,88.1,67.5z M117.6,81.4h-4.5v11.4h-3.8V81.4h-4.5v-3.3h12.9
			V81.4z M117.9,55.9h-4.5v11.4h-3.8V55.9H105v-3.3h12.9V55.9z M134.7,93c-4.2,0-7.1-3.2-7.1-7.6c0-4.4,2.9-7.6,7.1-7.6
			c4.2,0,7.2,3.2,7.2,7.6C141.9,89.8,139,93,134.7,93z M154.7,64.3c-0.3-0.3-0.6-0.9-0.7-1.8c-1.4,0.3-3.9-0.1-3.9-0.1
			c-0.4,0-1.1,0-1.1,0s-0.7,1.9-0.6,3.4c0.7,0.2,1.5,0.6,1.7,0.6s0.1,0.7,0.1,1.2c-0.8-0.2-2.7-0.4-3.1-0.6
			c-0.1,0.3,0.2,0.7,0.1,1.3c-0.2,0.1-2.2,0.2-2.5,0c0.3-0.4,1-0.5,0.9-1.6c-0.6-0.5-1.1-0.6-1.3-2.1c-0.9-0.6-4.9-2.1-5.7-1.8
			c-0.8,0.3-1.8,3.2-2.1,3.2c-0.4,0.1-0.4-0.7-0.6-0.8c-0.2-0.1-0.3,0.2-0.7,0c-0.3-0.2-0.6-1.3-0.6-1.3c-0.4-0.3-1.5,0-1.8-1
			c0.1-1.1-0.4-1.8-0.4-1.8s-0.1-1.3-0.2-2.3c-0.3-1.1-0.2-1.7,0-2.2c0.2-0.5,0.4-1.7,1.6-2.5c0.5-0.3,1-0.4,1.6-0.4l1.1,0.1
			c0.4,0,0.7,0.1,0.7,0c0.2-0.3,0.3-2.3,1.6-3.5c1.6-1.2,5.5-1.4,5.5-1.4s1.7-0.2,3,0c1.3,0.2,4.7,0.6,6,0.9c1.3,0.3,3.4,0.7,4.6,1
			c1.2,0.4,3.7,2.3,4,2.5c0.3,0.2,0.4,0.4,0.6,1.6c0,4.1,2,7.2,2,7.2c-0.2,1.2,0.6,5,0.8,5c-0.2,0.3-0.6,0.7-0.7,1.1
			c-0.2,0.2-1.7,0.1-1.8,0c-0.1-0.1,0.6-0.7,0.6-0.7c1.6-2.9-4.4-8-4.6-7.9c-0.2,0.1-0.8,1.1-1.3,2.4c-0.5,1.3-0.1,1.4-0.1,1.4
			c-0.3,1.9-2.7,3.6-2.6,4.7c-1.8,0.2-2.5-0.1-2.5-0.1C153,67.7,155,64.7,154.7,64.3z M166,92.7h-3.1l-6.1-8.6v8.6h-3.7V78.1h3.6
			l5.7,8.1v-8.1h3.7V92.7z"/>
	</g>
</g>
</svg>
