<?xml version="1.0" encoding="utf-8"?>
<!-- Generator: Adobe Illustrator 19.0.0, SVG Export Plug-In . SVG Version: 6.00 Build 0)  -->
<svg version="1.1" id="Layer_1" xmlns="http://www.w3.org/2000/svg" xmlns:xlink="http://www.w3.org/1999/xlink" x="0px" y="0px"
	 viewBox="0 0 216 77.4" style="enable-background:new 0 0 216 77.4;" xml:space="preserve">
<style type="text/css">
	.st0{fill:#F1F1EF;}
</style>
<g id="XMLID_24_">
	<path id="XMLID_25_" class="st0" d="M21.7,13.4h-4.2V9.3h-10v7.3h4.9v-2.1h3.4v8.8h-3.4v-2.4H7.5v8.7h10v-4.7h4.2v9H0v-4.3h3.3V9.3
		H0V5h21.7V13.4z"/>
	<path id="XMLID_27_" class="st0" d="M43,9.3h-3.6v20.2h9.4v-3.9H53v8.1H31.9v-4.3h3.3V9.3h-3.3V5H43V9.3z"/>
	<path id="XMLID_29_" class="st0" d="M74.9,9.3h-4.7v20.2h4.7v4.3H61.2v-4.3H66V9.3h-4.8V5h13.7V9.3z"/>
	<path id="XMLID_31_" class="st0" d="M109.8,19.2c0,7.2-4.5,14.9-12.7,14.9c-7.3,0-12.7-6.3-12.7-14.9S89.8,4.3,97.2,4.3
		C104.9,4.3,109.8,11.5,109.8,19.2z M88.7,19.2c0,4.9,2.7,10.7,8.4,10.7c5.5,0,8.4-5.5,8.4-10.7c0-5-2.7-10.7-8.4-10.7
		C91.7,8.5,88.9,14,88.7,19.2z"/>
	<path id="XMLID_34_" class="st0" d="M141.4,13.4h-4.3V9.3h-5v20.2h5.3v4.3h-14.6v-4.3h5.1V9.3H123v4.2h-4.3V5h22.6V13.4z"/>
</g>
<g id="XMLID_1_">
	<path id="XMLID_2_" class="st0" d="M0,50.6v-4.2h12.4c4.3,0,7.8,3.2,7.8,7.7c0,1.8-0.6,3.4-1.9,4.9c2.3,1.6,3.7,4.1,3.7,7.1
		c0,4.8-3.9,8.9-9,9H0v-4.3h3V50.6H0z M12.4,50.6H7.3v6.8c1.7,0,3.4,0,5.2,0c1.8,0,3.6-1.3,3.6-3.2C16,52,14.5,50.7,12.4,50.6z
		 M13,61.5H7.3v9.3H13c2.6,0,4.7-2.1,4.7-4.7C17.7,63.4,15.7,61.7,13,61.5z"/>
	<path id="XMLID_6_" class="st0" d="M32.4,50.6v-4.2h14.1c4.9,0,8.7,3.8,8.7,8.6c0,4.1-2.3,7.1-6.1,8l3,5c0.5,0.9,1.1,1.8,1.7,2.7v0
		c0.3,0.5,0.8,0.7,1.4,0.7c0.9,0,1.8-0.4,2.9-1.1l2.4,3.5c-1.8,1.2-3.5,1.8-5.3,1.8c-2.1,0-4-1-5.1-2.7l-5.8-9.5h-3.6v7.6H45v4.3
		H32.4v-4.3h4.1V50.6H32.4z M40.7,50.6V59h5.8c2.5,0,4.4-1.6,4.4-4c0-2.5-1.9-4.4-4.4-4.4H40.7z"/>
	<path id="XMLID_9_" class="st0" d="M81.3,50.6h-4.7v20.2h4.7v4.3H67.6v-4.3h4.8V50.6h-4.8v-4.2h13.7V50.6z"/>
	<path id="XMLID_11_" class="st0" d="M113.4,54.7h-4.3v-4.2h-5v20.2h5.3v4.3H94.9v-4.3h5.1V50.6h-4.9v4.2h-4.3v-8.4h22.6V54.7z"/>
	<path id="XMLID_13_" class="st0" d="M144.9,54.7h-4.3v-4.2h-5v20.2h5.3v4.3h-14.6v-4.3h5.1V50.6h-4.9v4.2h-4.3v-8.4h22.6V54.7z"/>
	<path id="XMLID_16_" class="st0" d="M179.2,60.5c0,7.2-4.5,14.9-12.7,14.9c-7.3,0-12.7-6.3-12.7-14.9s5.3-14.9,12.7-14.9
		C174.2,45.6,179.2,52.8,179.2,60.5z M158.1,60.5c0,4.9,2.7,10.7,8.4,10.7c5.5,0,8.4-5.5,8.4-10.7c0-5-2.7-10.7-8.4-10.7
		C161.1,49.8,158.2,55.3,158.1,60.5z"/>
	<path id="XMLID_22_" class="st0" d="M216,50.6h-3.6v24.5h-3.2l-12-19.3v15h3.7v4.3h-11.6v-4.3h3.7V50.6h-3.7v-4.2l6.9,0
		c1.6,2.6,3.2,5.1,4.7,7.4c2.5,4.1,5.6,8.8,7.3,11.5V50.6h-3.7v-4.2H216V50.6z"/>
</g>
<g id="XMLID_93_">
	<path id="XMLID_50_" class="st0" d="M209.1,24.9c0,0-3.2-5.1-3.2-11.7c-0.4-2-0.6-2.3-1-2.6c-0.4-0.4-4.4-3.5-6.4-4.1
		c-2-0.6-5.4-1.2-7.5-1.7c-2.1-0.5-7.6-1.2-9.7-1.4c-2-0.3-4.8,0-4.8,0s-6.3,0.3-8.8,2.3c-2,1.9-2.2,5.3-2.5,5.7
		c-0.1,0.2-0.6,0.1-1.2,0.1l-1.7-0.1c-0.9,0-1.8,0.1-2.6,0.6c-2,1.2-2.4,3.2-2.6,4c-0.2,0.8-0.5,1.7,0,3.5c0.1,1.6,0.2,3.7,0.2,3.7
		s0.8,1.1,0.6,2.9c0.4,1.5,2.3,1,2.9,1.5c0,0,0.4,1.8,0.9,2.2c0.5,0.3,0.7-0.1,1.1,0c0.3,0.1,0.3,1.3,0.9,1.2
		c0.6-0.1,2.2-4.8,3.5-5.3c1.3-0.5,7.9,1.9,9.3,2.9c0.4,2.5,1.2,2.5,2.1,3.4c0.2,1.9-0.9,2-1.4,2.6c0.4,0.3,3.6,0.2,4,0
		c0.2-1-0.3-1.8-0.1-2.2c0.6,0.3,3.7,0.8,5,1c-0.1-0.8,0-1.9-0.2-1.9c-0.2,0-1.6-0.6-2.7-1c-0.1-2.4,1-5.5,1-5.5
		c0,0,1.2-0.1,1.9-0.1c0,0,4,0.6,6.3,0.1c0.2,1.5,0.7,2.5,1.2,3c0.4,0.5-2.8,5.4-4.3,6.4c0,0,1.1,0.4,4.1,0.1
		c-0.1-1.8,3.8-4.5,4.2-7.6c0,0-0.6-0.2,0.2-2.3c0.8-2,1.8-3.7,2.2-3.9c0.3-0.2,10,8.2,7.5,12.9c0,0-1,1-0.9,1.1
		c0.1,0.2,2.5,0.2,2.9-0.1c0.3-0.6,0.9-1.3,1.2-1.8C210,33,208.8,26.8,209.1,24.9z M162.6,17.4c0,0-0.7,0-0.8-0.6
		c2.4-2.7-0.7-3.6-0.6-4.4c0.2-0.1,0.3-0.1,0.4,0C166.2,14.3,162.6,17.4,162.6,17.4z"/>
</g>
</svg>
